<?xml version="1.0" standalone="no"?>
<!DOCTYPE svg PUBLIC "-//W3C//DTD SVG 20010904//EN"
 "http://www.w3.org/TR/2001/REC-SVG-20010904/DTD/svg10.dtd">
<svg version="1.0" xmlns="http://www.w3.org/2000/svg"
 width="500.000000pt" height="500.000000pt" viewBox="0 0 500.000000 500.000000"
 preserveAspectRatio="xMidYMid meet">
<metadata>
Created by potrace 1.11, written by Peter Selinger 2001-2013
</metadata>
<g transform="translate(0.000000,500.000000) scale(0.100000,-0.100000)"
fill="#000000" stroke="none">
<path d="M0 2500 l0 -2500 2500 0 2500 0 0 2500 0 2500 -2500 0 -2500 0 0
-2500z m1790 1270 l0 -290 320 0 320 0 0 -165 0 -165 -320 0 -321 0 3 -757 c4
-733 4 -760 24 -825 38 -123 103 -177 224 -186 111 -8 234 20 400 92 13 5 23
-21 57 -136 23 -78 40 -145 37 -149 -8 -13 -162 -69 -257 -94 -245 -64 -473
-59 -624 15 -109 54 -176 157 -215 332 -21 90 -22 121 -25 901 l-4 807 -185 0
-184 0 0 165 0 165 185 0 185 0 0 235 0 234 83 25 c162 49 282 84 290 85 4 1
7 -129 7 -289z m2275 -265 c44 -9 83 -20 87 -23 4 -4 -3 -54 -16 -112 -13 -58
-31 -139 -40 -181 l-17 -76 -67 20 c-95 28 -295 30 -372 3 -122 -42 -221 -138
-272 -264 l-23 -57 -3 -852 -2 -853 -190 0 -190 0 0 1185 0 1185 133 0 133 0
35 -142 c19 -78 39 -143 44 -145 6 -1 26 23 45 54 19 32 64 87 100 123 86 86
174 131 300 154 49 9 236 -2 315 -19z"/>
</g>
</svg>
